# xmcd
#
# Track frame offsets:
#	150
#	17818
#	41869
#	63755
#	99779
#	128699
#	159944
#	193765
#	218976
#	251940
#	264337
#	290429
#
# Disc length: 4063
#
# Revision: 3
# Processed by: cddbd v1.5.1PL0 Copyright (c) Steve Scherf et al.
# Submitted via: EasyCDDAExtractor 5.0.6
# Normalized: r2:DSETVAR1
#
DISCID=a70fdd0c
DTITLE=Various Artist - DEE JAY MIX CLUB CZERWIEC 2003 PART 2
DYEAR=2003
DGENRE=Acapella
TTITLE0=SCOOTER - THE NIGHT (RMX)
TTITLE1=SVEN-R-G WS. BASS-T - THE SIGN
TTITLE2=MILK INC - TIME
TTITLE3=LICHTENFELS - SOUND LIKE MELODY
TTITLE4=NFK FEAT. EAST AND ROCKERS - DON"TYOU WANT ME
TTITLE5=GABRY PONTE - GEORDIE (RMX)
TTITLE6=ERASURE - MAKE ME SMILE(RMX)
TTITLE7=FUNKSTAR DE LUXE - SATURDAY
TTITLE8=TATU - NOT GONNA GET US
TTITLE9=LINKIN PARK - FAINT
TTITLE10=ROOM 5 FEAT OLIVER CHEATHAM - MAKE LUV
TTITLE11=LIL BOW WOW FEAT. JERMANIE DUPRI , FABOLOUS and FUNDISHA - BASKETBALL
EXTD=
EXTT0=
EXTT1=
EXTT2=
EXTT3=
EXTT4=
EXTT5=
EXTT6=
EXTT7=
EXTT8=
EXTT9=
EXTT10=
EXTT11=
PLAYORDER=
